<mxfile host="app.diagrams.net" modified="2021-05-07T12:12:35.485Z" agent="5.0 (Macintosh)" etag="lRPtyfWv0jDSaRSnk5YP" version="14.6.10" type="github" pages="2">
  <diagram id="prtHgNgQTEPvFCAcTncT" name="Page-1">
    <mxGraphModel dx="1637" dy="1178" grid="1" gridSize="10" guides="1" tooltips="1" connect="1" arrows="1" fold="1" page="1" pageScale="1" pageWidth="1169" pageHeight="827" math="0" shadow="0">
      <root>
        <mxCell id="0" />
        <mxCell id="1" parent="0" />
        <mxCell id="pSK2qEDxXkrErEkI7SS4-2" value="Demand Formulation" style="html=1;outlineConnect=0;whiteSpace=wrap;fillColor=#ffff99;shape=mxgraph.archimate3.application;appType=proc;archiType=rounded;gradientColor=#ffffff;" vertex="1" parent="1">
          <mxGeometry x="90" y="240" width="130" height="60" as="geometry" />
        </mxCell>
        <mxCell id="kkAvzBFjIjQBJB4-EslT-1" value="&lt;br&gt;National Qualification&lt;br&gt;Global Assessment&lt;br&gt;Prioritisation&lt;br&gt;Approved and Prioritised&lt;br&gt;Design&lt;br&gt;Build&lt;br&gt;Test&lt;br&gt;Deploy&lt;br&gt;Closed" style="text;whiteSpace=wrap;html=1;" vertex="1" parent="1">
          <mxGeometry x="600" y="100" width="160" height="160" as="geometry" />
        </mxCell>
        <mxCell id="kkAvzBFjIjQBJB4-EslT-2" value="Demand Formulation" style="html=1;outlineConnect=0;whiteSpace=wrap;fillColor=#ffff99;shape=mxgraph.archimate3.application;appType=proc;archiType=rounded;gradientColor=#ffffff;" vertex="1" parent="1">
          <mxGeometry x="240" y="240" width="130" height="60" as="geometry" />
        </mxCell>
        <mxCell id="kkAvzBFjIjQBJB4-EslT-3" value="Demand Formulation" style="html=1;outlineConnect=0;whiteSpace=wrap;fillColor=#ffff99;shape=mxgraph.archimate3.application;appType=proc;archiType=rounded;gradientColor=#ffffff;" vertex="1" parent="1">
          <mxGeometry x="380" y="240" width="130" height="60" as="geometry" />
        </mxCell>
        <mxCell id="kkAvzBFjIjQBJB4-EslT-4" value="Demand Formulation" style="html=1;outlineConnect=0;whiteSpace=wrap;fillColor=#ffff99;shape=mxgraph.archimate3.application;appType=proc;archiType=rounded;gradientColor=#ffffff;" vertex="1" parent="1">
          <mxGeometry x="120" y="320" width="130" height="60" as="geometry" />
        </mxCell>
        <mxCell id="kkAvzBFjIjQBJB4-EslT-5" value="Demand Formulation" style="html=1;outlineConnect=0;whiteSpace=wrap;fillColor=#ffff99;shape=mxgraph.archimate3.application;appType=proc;archiType=rounded;gradientColor=#ffffff;" vertex="1" parent="1">
          <mxGeometry x="260" y="320" width="130" height="60" as="geometry" />
        </mxCell>
        <mxCell id="kkAvzBFjIjQBJB4-EslT-6" value="Demand Formulation" style="html=1;outlineConnect=0;whiteSpace=wrap;fillColor=#ffff99;shape=mxgraph.archimate3.application;appType=proc;archiType=rounded;gradientColor=#ffffff;" vertex="1" parent="1">
          <mxGeometry x="410" y="320" width="130" height="60" as="geometry" />
        </mxCell>
        <mxCell id="kkAvzBFjIjQBJB4-EslT-7" value="Demand Formulation" style="html=1;outlineConnect=0;whiteSpace=wrap;fillColor=#ffff99;shape=mxgraph.archimate3.application;appType=proc;archiType=rounded;gradientColor=#ffffff;" vertex="1" parent="1">
          <mxGeometry x="550" y="320" width="130" height="60" as="geometry" />
        </mxCell>
        <mxCell id="kkAvzBFjIjQBJB4-EslT-8" value="Demand Formulation" style="html=1;outlineConnect=0;whiteSpace=wrap;fillColor=#ffff99;shape=mxgraph.archimate3.application;appType=proc;archiType=rounded;gradientColor=#ffffff;" vertex="1" parent="1">
          <mxGeometry x="700" y="320" width="130" height="60" as="geometry" />
        </mxCell>
        <mxCell id="kkAvzBFjIjQBJB4-EslT-9" value="Demand Formulation" style="html=1;outlineConnect=0;whiteSpace=wrap;fillColor=#ffff99;shape=mxgraph.archimate3.application;appType=proc;archiType=rounded;gradientColor=#ffffff;" vertex="1" parent="1">
          <mxGeometry x="850" y="320" width="130" height="60" as="geometry" />
        </mxCell>
        <mxCell id="kkAvzBFjIjQBJB4-EslT-10" value="Demand Formulation" style="html=1;outlineConnect=0;whiteSpace=wrap;fillColor=#ffff99;shape=mxgraph.archimate3.application;appType=proc;archiType=rounded;gradientColor=#ffffff;" vertex="1" parent="1">
          <mxGeometry x="1000" y="320" width="130" height="60" as="geometry" />
        </mxCell>
      </root>
    </mxGraphModel>
  </diagram>
  <diagram id="v-b3sAT221pwnqyll39n" name="Page-2">
    <mxGraphModel dx="1637" dy="1178" grid="1" gridSize="10" guides="1" tooltips="1" connect="1" arrows="1" fold="1" page="1" pageScale="1" pageWidth="1169" pageHeight="827" math="0" shadow="0">
      <root>
        <mxCell id="uWfKr8RefFhWnUi3p51r-0" />
        <mxCell id="uWfKr8RefFhWnUi3p51r-1" parent="uWfKr8RefFhWnUi3p51r-0" />
        <mxCell id="DIcJdFjjL4OBwgaZdVdM-0" value="Pool" style="swimlane;html=1;childLayout=stackLayout;resizeParent=1;resizeParentMax=0;horizontal=0;startSize=20;horizontalStack=0;" vertex="1" parent="uWfKr8RefFhWnUi3p51r-1">
          <mxGeometry x="120" y="120" width="450" height="360" as="geometry" />
        </mxCell>
        <mxCell id="DIcJdFjjL4OBwgaZdVdM-1" value="" style="edgeStyle=orthogonalEdgeStyle;rounded=0;orthogonalLoop=1;jettySize=auto;html=1;dashed=1;endArrow=none;endFill=0;" edge="1" parent="DIcJdFjjL4OBwgaZdVdM-0" source="DIcJdFjjL4OBwgaZdVdM-8" target="DIcJdFjjL4OBwgaZdVdM-14">
          <mxGeometry relative="1" as="geometry" />
        </mxCell>
        <mxCell id="DIcJdFjjL4OBwgaZdVdM-2" style="edgeStyle=orthogonalEdgeStyle;rounded=0;orthogonalLoop=1;jettySize=auto;html=1;endArrow=classic;endFill=1;" edge="1" parent="DIcJdFjjL4OBwgaZdVdM-0" source="DIcJdFjjL4OBwgaZdVdM-15" target="DIcJdFjjL4OBwgaZdVdM-10">
          <mxGeometry relative="1" as="geometry" />
        </mxCell>
        <mxCell id="DIcJdFjjL4OBwgaZdVdM-3" style="edgeStyle=orthogonalEdgeStyle;rounded=0;orthogonalLoop=1;jettySize=auto;html=1;endArrow=classic;endFill=1;" edge="1" parent="DIcJdFjjL4OBwgaZdVdM-0" source="DIcJdFjjL4OBwgaZdVdM-15" target="DIcJdFjjL4OBwgaZdVdM-18">
          <mxGeometry relative="1" as="geometry" />
        </mxCell>
        <mxCell id="DIcJdFjjL4OBwgaZdVdM-4" style="edgeStyle=orthogonalEdgeStyle;rounded=0;orthogonalLoop=1;jettySize=auto;html=1;endArrow=classic;endFill=1;" edge="1" parent="DIcJdFjjL4OBwgaZdVdM-0" source="DIcJdFjjL4OBwgaZdVdM-14" target="DIcJdFjjL4OBwgaZdVdM-19">
          <mxGeometry relative="1" as="geometry">
            <Array as="points">
              <mxPoint x="180" y="340" />
              <mxPoint x="400" y="340" />
            </Array>
          </mxGeometry>
        </mxCell>
        <mxCell id="DIcJdFjjL4OBwgaZdVdM-5" value="Lane 1" style="swimlane;html=1;startSize=20;horizontal=0;" vertex="1" parent="DIcJdFjjL4OBwgaZdVdM-0">
          <mxGeometry x="20" width="430" height="120" as="geometry" />
        </mxCell>
        <mxCell id="DIcJdFjjL4OBwgaZdVdM-6" value="" style="edgeStyle=orthogonalEdgeStyle;rounded=0;orthogonalLoop=1;jettySize=auto;html=1;" edge="1" parent="DIcJdFjjL4OBwgaZdVdM-5" source="DIcJdFjjL4OBwgaZdVdM-7" target="DIcJdFjjL4OBwgaZdVdM-8">
          <mxGeometry relative="1" as="geometry" />
        </mxCell>
        <mxCell id="DIcJdFjjL4OBwgaZdVdM-7" value="" style="ellipse;whiteSpace=wrap;html=1;" vertex="1" parent="DIcJdFjjL4OBwgaZdVdM-5">
          <mxGeometry x="40" y="40" width="40" height="40" as="geometry" />
        </mxCell>
        <mxCell id="DIcJdFjjL4OBwgaZdVdM-8" value="" style="rounded=0;whiteSpace=wrap;html=1;fontFamily=Helvetica;fontSize=12;fontColor=#000000;align=center;" vertex="1" parent="DIcJdFjjL4OBwgaZdVdM-5">
          <mxGeometry x="120" y="30" width="80" height="60" as="geometry" />
        </mxCell>
        <mxCell id="DIcJdFjjL4OBwgaZdVdM-9" value="" style="edgeStyle=orthogonalEdgeStyle;rounded=0;orthogonalLoop=1;jettySize=auto;html=1;endArrow=classic;endFill=1;" edge="1" parent="DIcJdFjjL4OBwgaZdVdM-5" source="DIcJdFjjL4OBwgaZdVdM-10" target="DIcJdFjjL4OBwgaZdVdM-11">
          <mxGeometry relative="1" as="geometry" />
        </mxCell>
        <mxCell id="DIcJdFjjL4OBwgaZdVdM-10" value="" style="rounded=0;whiteSpace=wrap;html=1;fontFamily=Helvetica;fontSize=12;fontColor=#000000;align=center;" vertex="1" parent="DIcJdFjjL4OBwgaZdVdM-5">
          <mxGeometry x="240" y="30" width="80" height="60" as="geometry" />
        </mxCell>
        <mxCell id="DIcJdFjjL4OBwgaZdVdM-11" value="" style="ellipse;whiteSpace=wrap;html=1;" vertex="1" parent="DIcJdFjjL4OBwgaZdVdM-5">
          <mxGeometry x="360" y="40" width="40" height="40" as="geometry" />
        </mxCell>
        <mxCell id="DIcJdFjjL4OBwgaZdVdM-12" value="Lane 2" style="swimlane;html=1;startSize=20;horizontal=0;" vertex="1" parent="DIcJdFjjL4OBwgaZdVdM-0">
          <mxGeometry x="20" y="120" width="430" height="120" as="geometry" />
        </mxCell>
        <mxCell id="DIcJdFjjL4OBwgaZdVdM-13" value="" style="edgeStyle=orthogonalEdgeStyle;rounded=0;orthogonalLoop=1;jettySize=auto;html=1;endArrow=classic;endFill=1;" edge="1" parent="DIcJdFjjL4OBwgaZdVdM-12" source="DIcJdFjjL4OBwgaZdVdM-14" target="DIcJdFjjL4OBwgaZdVdM-15">
          <mxGeometry relative="1" as="geometry" />
        </mxCell>
        <mxCell id="DIcJdFjjL4OBwgaZdVdM-14" value="" style="rounded=0;whiteSpace=wrap;html=1;fontFamily=Helvetica;fontSize=12;fontColor=#000000;align=center;" vertex="1" parent="DIcJdFjjL4OBwgaZdVdM-12">
          <mxGeometry x="120" y="30" width="80" height="60" as="geometry" />
        </mxCell>
        <mxCell id="DIcJdFjjL4OBwgaZdVdM-15" value="" style="rhombus;whiteSpace=wrap;html=1;fontFamily=Helvetica;fontSize=12;fontColor=#000000;align=center;" vertex="1" parent="DIcJdFjjL4OBwgaZdVdM-12">
          <mxGeometry x="260" y="40" width="40" height="40" as="geometry" />
        </mxCell>
        <mxCell id="DIcJdFjjL4OBwgaZdVdM-16" value="Lane 3" style="swimlane;html=1;startSize=20;horizontal=0;" vertex="1" parent="DIcJdFjjL4OBwgaZdVdM-0">
          <mxGeometry x="20" y="240" width="430" height="120" as="geometry" />
        </mxCell>
        <mxCell id="DIcJdFjjL4OBwgaZdVdM-17" value="" style="edgeStyle=orthogonalEdgeStyle;rounded=0;orthogonalLoop=1;jettySize=auto;html=1;endArrow=classic;endFill=1;" edge="1" parent="DIcJdFjjL4OBwgaZdVdM-16" source="DIcJdFjjL4OBwgaZdVdM-18" target="DIcJdFjjL4OBwgaZdVdM-19">
          <mxGeometry relative="1" as="geometry" />
        </mxCell>
        <mxCell id="DIcJdFjjL4OBwgaZdVdM-18" value="" style="rounded=0;whiteSpace=wrap;html=1;fontFamily=Helvetica;fontSize=12;fontColor=#000000;align=center;" vertex="1" parent="DIcJdFjjL4OBwgaZdVdM-16">
          <mxGeometry x="240" y="20" width="80" height="60" as="geometry" />
        </mxCell>
        <mxCell id="DIcJdFjjL4OBwgaZdVdM-19" value="" style="rhombus;whiteSpace=wrap;html=1;fontFamily=Helvetica;fontSize=12;fontColor=#000000;align=center;" vertex="1" parent="DIcJdFjjL4OBwgaZdVdM-16">
          <mxGeometry x="360" y="30" width="40" height="40" as="geometry" />
        </mxCell>
      </root>
    </mxGraphModel>
  </diagram>
</mxfile>
